{
  "source": "C:\\Users\\Peter\\Desktop\\stuff\\MIUN\\quantitative_research\\video_compression\\videos\\BVI-HD\\BVI-HD_CDVL_videos\\ORIG\\PlasmaSlowRandom_1920x1080_60fps.mp4",
  "output": "C:\\Users\\Peter\\Desktop\\stuff\\MIUN\\quantitative_research\\video_compression\\compressed_videos\\BVI-HD\\vp9\\3\\PlasmaSlowRandom_1920x1080_60fps_vp9.webm",
  "codec": "vp9",
  "ok": "Input #0, mov,mp4,m4a,3gp,3g2,mj2, from 'C:\\Users\\Peter\\Desktop\\stuff\\MIUN\\quantitative_research\\video_compression\\videos\\BVI-HD\\BVI-HD_CDVL_videos\\ORIG\\PlasmaSlowRandom_1920x1080_60fps.mp4':\n  Metadata:\n    major_brand     : isom\n    minor_version   : 512\n    compatible_brands: isomiso2avc1mp41\n    encoder         : Lavf54.28.101\n  Duration: 00:00:05.00, start: 0.000000, bitrate: 23030 kb/s\n  Stream #0:0[0x1](und): Video: h264 (High 4:4:4 Predictive) (avc1 / 0x31637661), yuv420p(progressive), 1920x1080, 23026 kb/s, 60 fps, 60 tbr, 60 tbn (default)\n    Metadata:\n      handler_name    : VideoHandler\n      vendor_id       : [0][0][0][0]\n[out#0/webm @ 000002203ae45040] Codec AVOption b:a (set bitrate (in bits/s)) has not been used for any stream. The most likely reason is either wrong type (e.g. a video option with no video streams) or that it is a private option of some decoder which was not actually used for any stream.\nStream mapping:\n  Stream #0:0 -> #0:0 (h264 (native) -> vp9 (libvpx-vp9))\nPress [q] to stop, [?] for help\n[libvpx-vp9 @ 000002203a8d4a00] v1.15.2-100-g40561f514\nOutput #0, webm, to 'C:\\Users\\Peter\\Desktop\\stuff\\MIUN\\quantitative_research\\video_compression\\compressed_videos\\BVI-HD\\vp9\\3\\PlasmaSlowRandom_1920x1080_60fps_vp9.webm':\n  Metadata:\n    major_brand     : isom\n    minor_version   : 512\n    compatible_brands: isomiso2avc1mp41\n    encoder         : Lavf62.3.100\n  Stream #0:0(und): Video: vp9, yuv420p(tv, progressive), 1920x1080, q=2-31, 3000 kb/s, 60 fps, 1k tbn (default)\n    Metadata:\n      encoder         : Lavc62.11.100 libvpx-vp9\n      handler_name    : VideoHandler\n      vendor_id       : [0][0][0][0]\n    Side data:\n      cpb: bitrate max/min/avg: 0/0/0 buffer size: 3000000 vbv_delay: N/A\nframe=    5 fps=0.0 q=38.0 size=       1KiB time=00:00:00.08 bitrate=  60.8kbits/s speed=0.159x elapsed=0:00:00.52    \nframe=   16 fps= 15 q=28.0 size=       1KiB time=00:00:00.26 bitrate=  19.0kbits/s speed=0.255x elapsed=0:00:01.04    \nframe=   24 fps= 15 q=28.0 size=       1KiB time=00:00:00.40 bitrate=  12.7kbits/s speed=0.253x elapsed=0:00:01.57    \nframe=   33 fps= 16 q=28.0 size=       1KiB time=00:00:00.55 bitrate=   9.2kbits/s speed=0.261x elapsed=0:00:02.10    \nframe=   42 fps= 16 q=32.0 size=       1KiB time=00:00:00.70 bitrate=   7.2kbits/s speed=0.266x elapsed=0:00:02.62    \nframe=   51 fps= 16 q=32.0 size=       1KiB time=00:00:00.85 bitrate=   6.0kbits/s speed=0.269x elapsed=0:00:03.15    \nframe=   60 fps= 16 q=32.0 size=       1KiB time=00:00:01.00 bitrate=   5.1kbits/s speed=0.271x elapsed=0:00:03.68    \nframe=   71 fps= 17 q=32.0 size=       1KiB time=00:00:01.18 bitrate=   4.3kbits/s speed=0.281x elapsed=0:00:04.21    \nframe=   80 fps= 17 q=32.0 size=       1KiB time=00:00:01.33 bitrate=   3.8kbits/s speed=0.282x elapsed=0:00:04.72    \nframe=   90 fps= 17 q=31.0 size=       1KiB time=00:00:01.50 bitrate=   3.4kbits/s speed=0.285x elapsed=0:00:05.25    \nframe=  100 fps= 17 q=31.0 size=       1KiB time=00:00:01.66 bitrate=   3.0kbits/s speed=0.288x elapsed=0:00:05.78    \nframe=  109 fps= 17 q=13.0 size=       1KiB time=00:00:01.81 bitrate=   2.8kbits/s speed=0.287x elapsed=0:00:06.32    \nframe=  118 fps= 17 q=34.0 size=       1KiB time=00:00:01.96 bitrate=   2.6kbits/s speed=0.287x elapsed=0:00:06.85    \nframe=  128 fps= 17 q=38.0 size=       1KiB time=00:00:02.13 bitrate=   2.4kbits/s speed=0.289x elapsed=0:00:07.39    \nframe=  138 fps= 17 q=34.0 size=     256KiB time=00:00:02.30 bitrate= 911.8kbits/s speed=0.291x elapsed=0:00:07.90    \nframe=  147 fps= 17 q=32.0 size=     256KiB time=00:00:02.45 bitrate= 856.0kbits/s speed=0.29x elapsed=0:00:08.44    \nframe=  157 fps= 17 q=32.0 size=     256KiB time=00:00:02.61 bitrate= 801.5kbits/s speed=0.292x elapsed=0:00:08.97    \nframe=  167 fps= 18 q=32.0 size=     256KiB time=00:00:02.78 bitrate= 753.5kbits/s speed=0.293x elapsed=0:00:09.51    \nframe=  177 fps= 18 q=33.0 size=     256KiB time=00:00:02.95 bitrate= 710.9kbits/s speed=0.294x elapsed=0:00:10.04    \nframe=  187 fps= 18 q=31.0 size=     256KiB time=00:00:03.11 bitrate= 672.9kbits/s speed=0.295x elapsed=0:00:10.55    \nframe=  197 fps= 18 q=32.0 size=     256KiB time=00:00:03.28 bitrate= 638.7kbits/s speed=0.296x elapsed=0:00:11.07    \nframe=  207 fps= 18 q=32.0 size=     256KiB time=00:00:03.45 bitrate= 607.9kbits/s speed=0.297x elapsed=0:00:11.60    \nframe=  215 fps= 18 q=33.0 size=     256KiB time=00:00:03.58 bitrate= 585.3kbits/s speed=0.295x elapsed=0:00:12.12    \nframe=  225 fps= 18 q=32.0 size=     256KiB time=00:00:03.75 bitrate= 559.2kbits/s speed=0.296x elapsed=0:00:12.65    \nframe=  235 fps= 18 q=34.0 size=     256KiB time=00:00:03.91 bitrate= 535.4kbits/s speed=0.297x elapsed=0:00:13.18    \nframe=  245 fps= 18 q=32.0 size=     256KiB time=00:00:04.08 bitrate= 513.6kbits/s speed=0.298x elapsed=0:00:13.70    \nframe=  256 fps= 18 q=31.0 size=     256KiB time=00:00:04.26 bitrate= 491.5kbits/s speed= 0.3x elapsed=0:00:14.22    \nframe=  266 fps= 18 q=31.0 size=     768KiB time=00:00:04.43 bitrate=1419.1kbits/s speed=0.301x elapsed=0:00:14.75    \nframe=  276 fps= 18 q=31.0 size=     768KiB time=00:00:04.60 bitrate=1367.7kbits/s speed=0.301x elapsed=0:00:15.27    \nframe=  276 fps= 17 q=31.0 size=     768KiB time=00:00:04.60 bitrate=1367.7kbits/s speed=0.291x elapsed=0:00:15.79    \nframe=  276 fps= 17 q=31.0 size=     768KiB time=00:00:04.60 bitrate=1367.7kbits/s speed=0.282x elapsed=0:00:16.30    \n[out#0/webm @ 000002203ae45040] video:1062KiB audio:0KiB subtitle:0KiB other streams:0KiB global headers:0KiB muxing overhead: 0.259776%\nframe=  300 fps= 18 q=32.0 Lsize=    1065KiB time=00:00:05.00 bitrate=1744.5kbits/s speed=0.302x elapsed=0:00:16.57    \n",
  "seconds": 16.805602073669434,
  "probe_out": {}
}